# xmcd CD database file
#
# Track frame offsets:
#	150
#	40060
#	96717
#	135140
#	191070
#
# Disc length: 2792 seconds
#
# Revision: 1
# Processed by: cddbd v1.5.1PL0 Copyright (c) Steve Scherf et al.
# Submitted via: CDex 1.51
#
DISCID=3e0ae605
DTITLE=Eric Dolphy - Eric Dolphy Left Alone
DYEAR=1966
DGENRE=Jazz
TTITLE0=Miss Ann
TTITLE1=Left Alone
TTITLE2=I Got Rhythm
TTITLE3=G.W.
TTITLE4=245
EXTD=YEAR: 1966
EXTT0=
EXTT1=
EXTT2=
EXTT3=
EXTT4=
PLAYORDER=
